<svg xmlns="http://www.w3.org/2000/svg" width="539" height="16" viewBox="0 0 539 16" fill="none">
  <path d="M12.8002 6.74536C177.453 13.1279 342.37 10.6149 507.256 13.3009C662.531 15.8304 196.537 13.7454 41.1771 13.7454C31.3427 13.7454 21.5084 13.7454 11.6741 13.7454C1.67949 13.7454 31.6468 13.339 41.6275 13.0787C129.632 10.7839 217.449 9.67992 305.578 9.96758C361.71 10.1508 417.903 10.8642 474.037 10.5787C476.297 10.5672 483.021 10.489 480.793 10.3009C463.28 8.82192 445.372 8.88714 427.643 8.30092C308.226 4.35217 188.555 2.32541 68.8783 3.96758C52.5501 4.19164 26.2329 4.77531 8.52112 5.30092C6.30259 5.36675 3.72658 4.97046 1.87732 5.57869C-5.34046 7.95267 19.2191 5.32469 27.8895 5.18981C114.62 3.8406 201.372 2.29369 288.123 1.35647C338.411 0.813194 489.316 0.745361 439.016 0.745361C352.267 0.745361 265.617 1.90274 179.008 4.41203C138.773 5.57771 103.437 6.7868 63.6984 8.57869C47.0095 9.33123 -2.77208 11.3792 13.9262 12.0787C37.7796 13.0779 64.8534 10.8591 88.3592 10.1343C141.966 8.48128 195.587 7.05058 249.274 6.18981C335.688 4.80434 423.194 3.26196 509.621 5.52314C529.972 6.05558 468.884 4.65565 448.588 3.74536" stroke="black" stroke-linecap="round"/>
</svg>