<svg width="226" height="50" viewBox="0 0 226 50" fill="none" xmlns="http://www.w3.org/2000/svg">
<g id="Group-70">
<g id="Group-3">
<g id="Mask group">
<mask id="mask0_1065_133" style="mask-type:luminance" maskUnits="userSpaceOnUse" x="0" y="0" width="47" height="50">
<g id="Group">
<path id="Vector" d="M0.94574 0H46.9018V50H0.94574V0Z" fill="white"/>
</g>
</mask>
<g mask="url(#mask0_1065_133)">
<path id="Fill-1" fill-rule="evenodd" clip-rule="evenodd" d="M23.9238 3.45873C22.758 3.45873 21.5919 3.75892 20.5525 4.3593L7.13772 12.1037C5.45293 13.0765 4.40616 14.8898 4.40616 16.8354V32.2827C4.40616 34.7098 5.71203 36.972 7.81467 38.1857L20.8764 45.7273C22.7559 46.8121 25.0912 46.8121 26.9711 45.7273L40.3032 38.03C42.2389 36.9123 43.4414 34.8291 43.4414 32.5941V18.6811C43.4414 15.597 41.7821 12.7231 39.1111 11.1811L27.2955 4.3593C26.2557 3.75892 25.0895 3.45873 23.9238 3.45873ZM23.9238 50C22.2719 50 20.6195 49.5744 19.1462 48.7236L6.08403 41.1825C2.91472 39.3519 0.94574 35.9421 0.94574 32.2827V16.8354C0.94574 13.6574 2.65562 10.6958 5.40751 9.10742L18.8218 1.36258C21.9691 -0.454572 25.8793 -0.454139 29.0257 1.36258L40.8413 8.18436C44.5794 10.3424 46.9018 14.3647 46.9018 18.6811V32.5941C46.9018 36.0619 45.0362 39.2931 42.0334 41.0267L28.7013 48.7236C27.228 49.5744 25.5757 50 23.9238 50Z" fill="#D9D9D9"/>
</g>
</g>
</g>
<path id="Fill-4" fill-rule="evenodd" clip-rule="evenodd" d="M64.9059 38.2329C64.9518 38.3488 64.9963 38.4652 65.04 38.5832C65.0837 38.4608 65.1296 38.344 65.1771 38.2329C65.2252 38.1217 65.2797 38.0092 65.3411 37.8963L68.5134 32.1326C68.5701 32.0327 68.6289 31.9712 68.6903 31.9496C68.7513 31.928 68.8383 31.9167 68.952 31.9167H69.8876V41.291H68.7751V34.4031C68.7751 34.3114 68.7773 34.2132 68.7816 34.1085C68.7859 34.0038 68.7924 33.897 68.8015 33.788L65.5894 39.6491C65.4804 39.8459 65.3281 39.9436 65.1313 39.9436H64.9483C64.7524 39.9436 64.5997 39.8459 64.4907 39.6491L61.2067 33.7685C61.2197 33.8814 61.2292 33.993 61.2361 34.102C61.2426 34.211 61.2461 34.3114 61.2461 34.4031V41.291H60.1336V31.9167H61.0692C61.1825 31.9167 61.2699 31.928 61.3309 31.9496C61.3919 31.9712 61.4507 32.0327 61.5078 32.1326L64.7454 37.9024C64.8069 38.0075 64.8601 38.1174 64.9059 38.2329Z" fill="#616160"/>
<path id="Fill-6" fill-rule="evenodd" clip-rule="evenodd" d="M76.3833 31.8121L74.859 33.5C74.798 33.5657 74.7379 33.6124 74.6791 33.641C74.6202 33.6691 74.545 33.6829 74.4537 33.6829H73.7603L74.7284 32.1002C74.7889 31.9999 74.856 31.9268 74.9278 31.8809C74.9996 31.8351 75.1051 31.8121 75.2449 31.8121H76.3833ZM73.8321 40.5782C74.0372 40.5782 74.2245 40.5575 74.3945 40.516C74.5645 40.4744 74.7249 40.4156 74.8755 40.3395C75.026 40.2629 75.1696 40.1703 75.3071 40.0613C75.4447 39.9523 75.5788 39.8278 75.7094 39.6885V38.3212C75.1731 38.3212 74.7171 38.3554 74.3421 38.4233C73.9671 38.4912 73.6617 38.5798 73.4264 38.6897C73.1911 38.7992 73.0198 38.9285 72.913 39.0781C72.8057 39.2274 72.7525 39.3935 72.7525 39.5777C72.7525 39.7534 72.781 39.9048 72.8377 40.0319C72.8944 40.1591 72.9705 40.2633 73.067 40.3447C73.1626 40.4255 73.2759 40.4852 73.4069 40.5224C73.5376 40.5596 73.6795 40.5782 73.8321 40.5782ZM76.8544 41.2911H76.3375C76.2242 41.2911 76.1325 41.2738 76.0628 41.2387C75.9927 41.2041 75.9473 41.1297 75.9253 41.0164L75.7946 40.4013C75.6199 40.5588 75.4499 40.6989 75.2842 40.8235C75.1186 40.9476 74.9442 41.0523 74.7608 41.1375C74.5779 41.2223 74.3828 41.2868 74.1756 41.3304C73.9684 41.3737 73.7383 41.3958 73.4852 41.3958C73.2279 41.3958 72.9869 41.3594 72.7624 41.2876C72.5379 41.2154 72.3429 41.1068 72.1768 40.9623C72.0111 40.8179 71.8792 40.6353 71.781 40.4147C71.6832 40.1933 71.6339 39.9316 71.6339 39.6301C71.6339 39.3675 71.7061 39.1149 71.8502 38.8718C71.9938 38.6292 72.2261 38.4137 72.5466 38.2252C72.8671 38.0374 73.2867 37.883 73.8058 37.7628C74.3248 37.6425 74.9594 37.5819 75.7094 37.5819V37.062C75.7094 36.5438 75.5996 36.1524 75.379 35.8872C75.1588 35.6216 74.8331 35.4888 74.4009 35.4888C74.1176 35.4888 73.8789 35.5247 73.6846 35.5965C73.4909 35.6683 73.3226 35.7497 73.1811 35.8388C73.0393 35.9283 72.9173 36.0088 72.8148 36.0806C72.7123 36.1524 72.611 36.1887 72.5107 36.1887C72.432 36.1887 72.3636 36.1679 72.3044 36.1268C72.2455 36.0853 72.1988 36.0338 72.1638 35.9729L71.9544 35.6C72.3208 35.2466 72.7157 34.9827 73.1388 34.8084C73.5618 34.6337 74.0307 34.5467 74.545 34.5467C74.9157 34.5467 75.2449 34.6077 75.5329 34.7297C75.8206 34.8517 76.0628 35.0221 76.2588 35.2401C76.4551 35.4586 76.6035 35.722 76.7039 36.0317C76.8042 36.3414 76.8544 36.6814 76.8544 37.0521V41.2911Z" fill="#616160"/>
<path id="Fill-8" fill-rule="evenodd" clip-rule="evenodd" d="M82.4143 35.757C82.362 35.853 82.2811 35.9006 82.1721 35.9006C82.1068 35.9006 82.0328 35.8768 81.9497 35.8288C81.8671 35.7808 81.7655 35.7276 81.6457 35.6683C81.5258 35.6095 81.3831 35.555 81.217 35.5048C81.0513 35.4551 80.8554 35.4296 80.6287 35.4296C80.4319 35.4296 80.2554 35.4551 80.0984 35.5048C79.9414 35.555 79.8077 35.6238 79.6961 35.7111C79.585 35.7985 79.5002 35.8997 79.4409 36.0152C79.3821 36.1307 79.3527 36.2562 79.3527 36.3916C79.3527 36.5611 79.402 36.7034 79.5002 36.8163C79.598 36.9301 79.7282 37.0278 79.8895 37.1109C80.0504 37.1935 80.2338 37.2666 80.4388 37.3302C80.6439 37.3933 80.8541 37.4608 81.0699 37.5326C81.2858 37.6044 81.496 37.6844 81.7015 37.7714C81.9061 37.8588 82.0895 37.9678 82.2508 38.0988C82.4121 38.2295 82.5419 38.3899 82.6401 38.5794C82.7383 38.7693 82.7872 38.9972 82.7872 39.2628C82.7872 39.5686 82.7327 39.8511 82.6237 40.1102C82.5147 40.3697 82.3533 40.5947 82.1396 40.7841C81.926 40.974 81.6643 41.1232 81.3546 41.2322C81.0448 41.3412 80.6871 41.3957 80.2818 41.3957C79.8194 41.3957 79.4007 41.3205 79.0257 41.1704C78.6507 41.0194 78.3323 40.8265 78.0706 40.5912L78.3453 40.1461C78.3803 40.0899 78.4219 40.0462 78.4699 40.0155C78.5179 39.9848 78.581 39.9696 78.6593 39.9696C78.738 39.9696 78.8207 40.0003 78.908 40.0613C78.9954 40.1223 79.101 40.1898 79.2251 40.2642C79.3497 40.3382 79.5002 40.4056 79.6767 40.4671C79.8532 40.5276 80.0746 40.5588 80.3407 40.5588C80.5673 40.5588 80.7658 40.5289 80.9358 40.4701C81.1063 40.4113 81.2477 40.3317 81.361 40.2313C81.4744 40.131 81.5583 40.0155 81.6128 39.8844C81.6673 39.7538 81.6945 39.6141 81.6945 39.4657C81.6945 39.2827 81.6457 39.1313 81.5475 39.0111C81.4497 38.8913 81.3195 38.7888 81.1582 38.7035C80.9968 38.6188 80.8126 38.5444 80.6054 38.4816C80.3982 38.4181 80.1871 38.3519 79.9713 38.2818C79.7554 38.2122 79.5435 38.1326 79.3367 38.043C79.1295 37.9539 78.9448 37.8415 78.7835 37.7061C78.6221 37.5711 78.4928 37.4046 78.3946 37.206C78.2964 37.0075 78.2475 36.7666 78.2475 36.4833C78.2475 36.2302 78.2994 35.9867 78.4041 35.7535C78.5088 35.5204 78.6615 35.3154 78.8622 35.1384C79.0629 34.962 79.309 34.8214 79.6014 34.7167C79.8934 34.612 80.2273 34.5597 80.6023 34.5597C81.0384 34.5597 81.4298 34.6285 81.7763 34.7656C82.1232 34.9031 82.423 35.0917 82.676 35.3318L82.4143 35.757Z" fill="#616160"/>
<path id="Fill-10" fill-rule="evenodd" clip-rule="evenodd" d="M89.2306 40.4407C89.6099 40.4407 89.9426 40.3533 90.2281 40.179C90.5135 40.0047 90.7765 39.7582 91.0166 39.4398V36.2341C90.8029 35.9465 90.5685 35.7449 90.3133 35.6294C90.0581 35.5135 89.7756 35.456 89.4659 35.456C88.8469 35.456 88.3716 35.6762 88.0402 36.1165C87.7084 36.5568 87.5428 37.1853 87.5428 38.0003C87.5428 38.4319 87.58 38.8018 87.654 39.1093C87.7279 39.4169 87.8374 39.6699 87.981 39.8685C88.125 40.067 88.3019 40.2119 88.5108 40.3036C88.7202 40.3949 88.9603 40.4407 89.2306 40.4407ZM91.4877 41.2911C91.3216 41.2911 91.2169 41.2102 91.1736 41.0489L91.0689 40.2443C90.7852 40.5891 90.4616 40.8646 90.0974 41.0718C89.7332 41.279 89.3158 41.3828 88.8448 41.3828C88.465 41.3828 88.1207 41.3097 87.811 41.1635C87.5013 41.0173 87.2374 40.8028 87.0194 40.5194C86.8014 40.2357 86.6336 39.8823 86.5159 39.4593C86.3983 39.0367 86.339 38.55 86.339 38.0003C86.339 37.5119 86.4047 37.0577 86.5354 36.6364C86.6664 36.2155 86.855 35.8509 87.1012 35.5412C87.3477 35.2315 87.6475 34.9884 88.0009 34.8115C88.3543 34.635 88.7552 34.5468 89.2042 34.5468C89.61 34.5468 89.9569 34.6151 90.2445 34.7527C90.5326 34.8902 90.7895 35.0827 91.0166 35.3314V31.6552H92.181V41.2911H91.4877Z" fill="#616160"/>
<path id="Fill-12" fill-rule="evenodd" clip-rule="evenodd" d="M95.9815 40.5779C96.1865 40.5779 96.3742 40.5572 96.5442 40.5157C96.7146 40.4746 96.8743 40.4153 97.0248 40.3392C97.1749 40.2626 97.3193 40.1705 97.4565 40.0615C97.594 39.9525 97.7285 39.8279 97.8592 39.6882V38.3209C97.3228 38.3209 96.8665 38.3551 96.4919 38.4234C96.1164 38.4913 95.8115 38.58 95.5762 38.6899C95.3404 38.7993 95.1691 38.9286 95.0623 39.0779C94.9555 39.2271 94.9022 39.3936 94.9022 39.5775C94.9022 39.7535 94.9304 39.9045 94.987 40.0316C95.0441 40.1588 95.1203 40.2631 95.2163 40.3444C95.3119 40.4253 95.4256 40.485 95.5563 40.5222C95.6873 40.5594 95.8288 40.5779 95.9815 40.5779ZM99.0041 41.2908H98.4868C98.3739 41.2908 98.2818 41.2735 98.2126 41.2385C98.1425 41.2039 98.0966 41.1295 98.0746 41.0166L97.944 40.4015C97.7696 40.5585 97.5992 40.6986 97.4335 40.8232C97.2679 40.9473 97.094 41.0525 96.9106 41.1372C96.7272 41.222 96.5321 41.2869 96.3249 41.3302C96.1177 41.3738 95.8876 41.3959 95.635 41.3959C95.3776 41.3959 95.1367 41.3596 94.9118 41.2878C94.6873 41.2155 94.4922 41.107 94.3265 40.9625C94.1609 40.818 94.0289 40.6355 93.9307 40.4144C93.8325 40.193 93.7832 39.9317 93.7832 39.6302C93.7832 39.3672 93.8555 39.1146 93.9995 38.872C94.1431 38.6289 94.3758 38.4135 94.6959 38.2253C95.0169 38.0371 95.4364 37.8831 95.9551 37.7625C96.4741 37.6422 97.1091 37.5817 97.8592 37.5817V37.0617C97.8592 36.544 97.7484 36.1525 97.5291 35.8869C97.3085 35.6213 96.9824 35.4885 96.5507 35.4885C96.2669 35.4885 96.0282 35.5244 95.8344 35.5962C95.6402 35.6681 95.4724 35.7494 95.3309 35.8385C95.1886 35.928 95.0666 36.0089 94.9641 36.0807C94.862 36.1525 94.7604 36.1888 94.66 36.1888C94.5817 36.1888 94.5129 36.1681 94.4541 36.1266C94.3953 36.085 94.3481 36.0336 94.3135 35.973L94.1042 35.5997C94.4706 35.2467 94.865 34.9825 95.2881 34.8081C95.7111 34.6338 96.18 34.5469 96.6943 34.5469C97.065 34.5469 97.3946 34.6074 97.6827 34.7294C97.9699 34.8518 98.2126 35.0218 98.4085 35.2398C98.6045 35.4583 98.7533 35.7217 98.8536 36.0314C98.9535 36.3411 99.0041 36.6811 99.0041 37.0522V41.2908Z" fill="#616160"/>
<path id="Fill-14" fill-rule="evenodd" clip-rule="evenodd" d="M102.699 41.3958C102.176 41.3958 101.774 41.2496 101.492 40.9572C101.211 40.6657 101.07 40.2444 101.07 39.6946V35.639H100.273C100.203 35.639 100.144 35.6187 100.096 35.5771C100.048 35.5356 100.024 35.4712 100.024 35.3842V34.9192L101.11 34.7821L101.378 32.7348C101.387 32.6691 101.415 32.6159 101.463 32.5739C101.511 32.5328 101.572 32.5121 101.646 32.5121H102.235V34.7951H104.132V35.639H102.235V39.6163C102.235 39.8953 102.303 40.1029 102.438 40.2379C102.573 40.3733 102.747 40.4408 102.961 40.4408C103.083 40.4408 103.189 40.4243 103.278 40.3919C103.368 40.359 103.445 40.3231 103.511 40.2838C103.576 40.2444 103.631 40.2085 103.678 40.176C103.723 40.1432 103.763 40.1263 103.798 40.1263C103.859 40.1263 103.914 40.1635 103.962 40.2379L104.302 40.7937C104.101 40.9815 103.859 41.129 103.576 41.2354C103.292 41.3422 103 41.3958 102.699 41.3958Z" fill="#616160"/>
<path id="Fill-16" fill-rule="evenodd" clip-rule="evenodd" d="M108.201 40.4732C108.855 40.4732 109.344 40.2539 109.666 39.8158C109.989 39.3776 110.15 38.766 110.15 37.9809C110.15 37.1915 109.989 36.5768 109.666 36.1365C109.344 35.6957 108.855 35.4755 108.201 35.4755C107.87 35.4755 107.581 35.5322 107.337 35.6455C107.093 35.7593 106.889 35.9224 106.726 36.1365C106.562 36.3502 106.44 36.6127 106.359 36.9246C106.279 37.2364 106.239 37.5885 106.239 37.9809C106.239 38.3736 106.279 38.7244 106.359 39.0341C106.44 39.3438 106.562 39.6042 106.726 39.8158C106.889 40.0277 107.093 40.1899 107.337 40.3032C107.581 40.4166 107.87 40.4732 108.201 40.4732ZM108.201 34.5598C108.685 34.5598 109.122 34.6407 109.512 34.802C109.903 34.9634 110.234 35.1922 110.507 35.4889C110.779 35.7852 110.989 36.1438 111.135 36.5647C111.281 36.9856 111.354 37.4553 111.354 37.9744C111.354 38.4978 111.281 38.9684 111.135 39.3871C110.989 39.8062 110.779 40.1635 110.507 40.4603C110.234 40.7566 109.903 40.9849 109.512 41.1441C109.122 41.3029 108.685 41.3829 108.201 41.3829C107.717 41.3829 107.28 41.3029 106.889 41.1441C106.499 40.9849 106.167 40.7566 105.892 40.4603C105.617 40.1635 105.405 39.8062 105.257 39.3871C105.109 38.9684 105.035 38.4978 105.035 37.9744C105.035 37.4553 105.109 36.9856 105.257 36.5647C105.405 36.1438 105.617 35.7852 105.892 35.4889C106.167 35.1922 106.499 34.9634 106.889 34.802C107.28 34.6407 107.717 34.5598 108.201 34.5598Z" fill="#616160"/>
<path id="Fill-18" fill-rule="evenodd" clip-rule="evenodd" d="M116.588 35.757C116.535 35.853 116.454 35.9006 116.345 35.9006C116.28 35.9006 116.206 35.8768 116.124 35.8288C116.04 35.7808 115.939 35.7276 115.819 35.6683C115.699 35.6095 115.556 35.555 115.39 35.5048C115.225 35.4551 115.029 35.4296 114.802 35.4296C114.606 35.4296 114.429 35.4551 114.272 35.5048C114.115 35.555 113.981 35.6238 113.87 35.7111C113.758 35.7985 113.674 35.8997 113.615 36.0152C113.555 36.1307 113.526 36.2562 113.526 36.3916C113.526 36.5611 113.575 36.7034 113.674 36.8163C113.771 36.9301 113.901 37.0278 114.062 37.1109C114.224 37.1935 114.407 37.2666 114.612 37.3302C114.817 37.3933 115.028 37.4608 115.244 37.5326C115.46 37.6044 115.67 37.6844 115.875 37.7714C116.079 37.8588 116.263 37.9678 116.424 38.0988C116.585 38.2295 116.715 38.3899 116.813 38.5794C116.912 38.7693 116.961 38.9972 116.961 39.2628C116.961 39.5686 116.906 39.8511 116.797 40.1102C116.688 40.3697 116.526 40.5947 116.313 40.7841C116.099 40.974 115.838 41.1232 115.528 41.2322C115.218 41.3412 114.861 41.3957 114.455 41.3957C113.993 41.3957 113.574 41.3205 113.199 41.1704C112.824 41.0194 112.506 40.8265 112.244 40.5912L112.519 40.1461C112.553 40.0899 112.595 40.0462 112.643 40.0155C112.691 39.9848 112.754 39.9696 112.833 39.9696C112.911 39.9696 112.994 40.0003 113.081 40.0613C113.168 40.1223 113.274 40.1898 113.398 40.2642C113.523 40.3382 113.674 40.4056 113.85 40.4671C114.027 40.5276 114.248 40.5588 114.514 40.5588C114.741 40.5588 114.939 40.5289 115.109 40.4701C115.28 40.4113 115.421 40.3317 115.534 40.2313C115.648 40.131 115.732 40.0155 115.786 39.8844C115.841 39.7538 115.868 39.6141 115.868 39.4657C115.868 39.2827 115.819 39.1313 115.721 39.0111C115.623 38.8913 115.493 38.7888 115.332 38.7035C115.171 38.6188 114.986 38.5444 114.779 38.4816C114.572 38.4181 114.36 38.3519 114.145 38.2818C113.929 38.2122 113.717 38.1326 113.51 38.043C113.302 37.9539 113.118 37.8415 112.957 37.7061C112.795 37.5711 112.666 37.4046 112.568 37.206C112.469 37.0075 112.42 36.7666 112.42 36.4833C112.42 36.2302 112.473 35.9867 112.577 35.7535C112.682 35.5204 112.835 35.3154 113.036 35.1384C113.236 34.962 113.482 34.8214 113.775 34.7167C114.067 34.612 114.4 34.5597 114.776 34.5597C115.212 34.5597 115.603 34.6285 115.95 34.7656C116.297 34.9031 116.597 35.0917 116.849 35.3318L116.588 35.757Z" fill="#616160"/>
<path id="Fill-20" fill-rule="evenodd" clip-rule="evenodd" d="M123.946 35.4888C123.567 35.4888 123.235 35.5758 122.949 35.7501C122.663 35.9249 122.401 36.1714 122.161 36.4893V39.695C122.374 39.9831 122.609 40.1855 122.864 40.3036C123.119 40.4208 123.404 40.4801 123.718 40.4801C124.333 40.4801 124.806 40.2595 125.137 39.8196C125.469 39.3788 125.634 38.7507 125.634 37.9354C125.634 37.5032 125.596 37.133 125.52 36.8233C125.444 36.5136 125.333 36.2597 125.19 36.0611C125.046 35.8626 124.869 35.7177 124.659 35.626C124.45 35.5343 124.213 35.4888 123.946 35.4888ZM120.996 43.5352V34.6644H121.69C121.856 34.6644 121.96 34.7449 122.004 34.9062L122.102 35.6917C122.385 35.347 122.709 35.0697 123.073 34.8608C123.437 34.651 123.857 34.5468 124.333 34.5468C124.712 34.5468 125.056 34.6199 125.366 34.7656C125.676 34.9118 125.939 35.1277 126.158 35.4136C126.376 35.6991 126.544 36.0538 126.661 36.4764C126.779 36.8998 126.838 37.386 126.838 37.9354C126.838 38.4237 126.772 38.8783 126.642 39.2992C126.511 39.7201 126.323 40.0843 126.079 40.3918C125.835 40.6989 125.535 40.9407 125.18 41.1181C124.824 41.2946 124.424 41.3828 123.979 41.3828C123.569 41.3828 123.219 41.3153 122.929 41.1799C122.639 41.045 122.383 40.8525 122.161 40.6042V43.5352H120.996Z" fill="#616160"/>
<path id="Fill-22" fill-rule="evenodd" clip-rule="evenodd" d="M130.063 40.5779C130.268 40.5779 130.455 40.5572 130.625 40.5157C130.795 40.4746 130.955 40.4153 131.106 40.3392C131.257 40.2626 131.401 40.1705 131.538 40.0615C131.676 39.9525 131.809 39.8279 131.94 39.6882V38.3209C131.404 38.3209 130.948 38.3551 130.573 38.4234C130.198 38.4913 129.893 38.58 129.657 38.6899C129.422 38.7993 129.25 38.9286 129.143 39.0779C129.037 39.2271 128.983 39.3936 128.983 39.5775C128.983 39.7535 129.012 39.9045 129.068 40.0316C129.125 40.1588 129.201 40.2631 129.297 40.3444C129.393 40.4253 129.507 40.485 129.638 40.5222C129.768 40.5594 129.91 40.5779 130.063 40.5779ZM133.085 41.2908H132.568C132.455 41.2908 132.363 41.2735 132.293 41.2385C132.224 41.2039 132.178 41.1295 132.156 41.0166L132.025 40.4015C131.851 40.5585 131.68 40.6986 131.515 40.8232C131.35 40.9473 131.175 41.0525 130.991 41.1372C130.809 41.222 130.613 41.2869 130.406 41.3302C130.199 41.3738 129.969 41.3959 129.716 41.3959C129.459 41.3959 129.218 41.3596 128.993 41.2878C128.768 41.2155 128.573 41.107 128.408 40.9625C128.242 40.818 128.11 40.6355 128.012 40.4144C127.914 40.193 127.865 39.9317 127.865 39.6302C127.865 39.3672 127.937 39.1146 128.081 38.872C128.224 38.6289 128.457 38.4135 128.777 38.2253C129.098 38.0371 129.517 37.8831 130.036 37.7625C130.556 37.6422 131.19 37.5817 131.94 37.5817V37.0617C131.94 36.544 131.83 36.1525 131.61 35.8869C131.389 35.6213 131.064 35.4885 130.631 35.4885C130.348 35.4885 130.109 35.5244 129.916 35.5962C129.721 35.6681 129.554 35.7494 129.412 35.8385C129.27 35.928 129.148 36.0089 129.045 36.0807C128.943 36.1525 128.842 36.1888 128.741 36.1888C128.663 36.1888 128.594 36.1681 128.535 36.1266C128.477 36.085 128.43 36.0336 128.395 35.973L128.185 35.5997C128.552 35.2467 128.946 34.9825 129.369 34.8081C129.792 34.6338 130.261 34.5469 130.776 34.5469C131.147 34.5469 131.476 34.6074 131.764 34.7294C132.052 34.8518 132.293 35.0218 132.49 35.2398C132.686 35.4583 132.834 35.7217 132.935 36.0314C133.035 36.3411 133.085 36.6811 133.085 37.0522V41.2908Z" fill="#616160"/>
<path id="Fill-24" fill-rule="evenodd" clip-rule="evenodd" d="M134.851 41.2911V34.6644H135.519C135.645 34.6644 135.732 34.6882 135.78 34.7366C135.828 34.7842 135.861 34.8668 135.878 34.9849L135.957 36.0187C136.183 35.5563 136.464 35.1951 136.797 34.936C137.131 34.6765 137.523 34.5468 137.972 34.5468C138.155 34.5468 138.321 34.5675 138.469 34.609C138.617 34.6501 138.754 34.7081 138.881 34.7821L138.73 35.6524C138.7 35.7614 138.632 35.8159 138.527 35.8159C138.466 35.8159 138.373 35.7951 138.246 35.7536C138.12 35.7125 137.943 35.6917 137.716 35.6917C137.311 35.6917 136.972 35.8089 136.699 36.0447C136.427 36.28 136.199 36.6226 136.016 37.0716V41.2911H134.851Z" fill="#616160"/>
<path id="Fill-26" fill-rule="evenodd" clip-rule="evenodd" d="M141.916 40.5779C142.121 40.5779 142.308 40.5572 142.479 40.5157C142.649 40.4746 142.809 40.4153 142.959 40.3392C143.11 40.2626 143.254 40.1705 143.391 40.0615C143.529 39.9525 143.663 39.8279 143.794 39.6882V38.3209C143.257 38.3209 142.801 38.3551 142.426 38.4234C142.051 38.4913 141.746 38.58 141.511 38.6899C141.275 38.7993 141.104 38.9286 140.997 39.0779C140.89 39.2271 140.837 39.3936 140.837 39.5775C140.837 39.7535 140.865 39.9045 140.922 40.0316C140.978 40.1588 141.055 40.2631 141.15 40.3444C141.246 40.4253 141.36 40.485 141.491 40.5222C141.621 40.5594 141.763 40.5779 141.916 40.5779ZM144.938 41.2908H144.421C144.308 41.2908 144.216 41.2735 144.147 41.2385C144.077 41.2039 144.031 41.1295 144.01 41.0166L143.879 40.4015C143.704 40.5585 143.534 40.6986 143.368 40.8232C143.203 40.9473 143.028 41.0525 142.845 41.1372C142.662 41.222 142.466 41.2869 142.259 41.3302C142.052 41.3738 141.822 41.3959 141.569 41.3959C141.312 41.3959 141.071 41.3596 140.846 41.2878C140.622 41.2155 140.427 41.107 140.261 40.9625C140.095 40.818 139.963 40.6355 139.865 40.4144C139.767 40.193 139.718 39.9317 139.718 39.6302C139.718 39.3672 139.79 39.1146 139.934 38.872C140.078 38.6289 140.31 38.4135 140.63 38.2253C140.951 38.0371 141.371 37.8831 141.89 37.7625C142.409 37.6422 143.043 37.5817 143.794 37.5817V37.0617C143.794 36.544 143.683 36.1525 143.463 35.8869C143.243 35.6213 142.917 35.4885 142.485 35.4885C142.202 35.4885 141.963 35.5244 141.769 35.5962C141.575 35.6681 141.407 35.7494 141.265 35.8385C141.124 35.928 141.001 36.0089 140.899 36.0807C140.796 36.1525 140.695 36.1888 140.595 36.1888C140.516 36.1888 140.447 36.1681 140.389 36.1266C140.33 36.085 140.283 36.0336 140.248 35.973L140.039 35.5997C140.405 35.2467 140.8 34.9825 141.223 34.8081C141.646 34.6338 142.115 34.5469 142.629 34.5469C143 34.5469 143.329 34.6074 143.617 34.7294C143.905 34.8518 144.147 35.0218 144.343 35.2398C144.539 35.4583 144.687 35.7217 144.788 36.0314C144.888 36.3411 144.938 36.6811 144.938 37.0522V41.2908Z" fill="#616160"/>
<path id="Fill-28" fill-rule="evenodd" clip-rule="evenodd" d="M149.23 41.2911V34.6644H149.924C150.089 34.6644 150.194 34.7448 150.237 34.9062L150.322 35.5866C150.566 35.2859 150.84 35.0394 151.143 34.8478C151.446 34.6557 151.798 34.5597 152.2 34.5597C152.649 34.5597 153.012 34.6843 153.289 34.9326C153.566 35.1813 153.765 35.5169 153.887 35.94C153.979 35.6999 154.1 35.4931 154.25 35.3184C154.401 35.1441 154.57 35 154.757 34.8867C154.945 34.7738 155.144 34.6903 155.356 34.638C155.567 34.5856 155.782 34.5597 156 34.5597C156.349 34.5597 156.66 34.6151 156.933 34.7262C157.205 34.8378 157.437 35 157.626 35.2137C157.816 35.4274 157.961 35.6904 158.061 36.0018C158.161 36.3141 158.212 36.6705 158.212 37.0715V41.2911H157.047V37.0715C157.047 36.5529 156.934 36.1593 156.707 35.8911C156.48 35.6229 156.151 35.4888 155.719 35.4888C155.527 35.4888 155.345 35.5226 155.173 35.59C155 35.6579 154.849 35.757 154.718 35.8876C154.587 36.0187 154.483 36.1831 154.407 36.3812C154.331 36.5797 154.293 36.8103 154.293 37.0715V41.2911H153.129V37.0715C153.129 36.5399 153.022 36.1428 152.808 35.8811C152.594 35.6194 152.283 35.4888 151.872 35.4888C151.585 35.4888 151.318 35.5662 151.071 35.7207C150.825 35.8755 150.599 36.0862 150.394 36.3522V41.2911H149.23Z" fill="#616160"/>
<path id="Fill-30" fill-rule="evenodd" clip-rule="evenodd" d="M164.367 31.8121L162.843 33.5C162.782 33.5657 162.721 33.6124 162.663 33.641C162.604 33.6691 162.529 33.6829 162.437 33.6829H161.744L162.712 32.1002C162.773 31.9999 162.84 31.9268 162.911 31.8809C162.983 31.8351 163.089 31.8121 163.228 31.8121H164.367ZM161.816 40.5782C162.02 40.5782 162.208 40.5575 162.378 40.516C162.548 40.4744 162.709 40.4156 162.859 40.3395C163.009 40.2629 163.153 40.1703 163.291 40.0613C163.428 39.9523 163.562 39.8278 163.693 39.6885V38.3212C163.157 38.3212 162.701 38.3554 162.326 38.4233C161.951 38.4912 161.646 38.5798 161.41 38.6897C161.174 38.7992 161.003 38.9285 160.897 39.0781C160.789 39.2274 160.736 39.3935 160.736 39.5777C160.736 39.7534 160.765 39.9048 160.821 40.0319C160.878 40.1591 160.954 40.2633 161.05 40.3447C161.146 40.4255 161.259 40.4852 161.391 40.5224C161.521 40.5596 161.663 40.5782 161.816 40.5782ZM164.838 41.2911H164.321C164.208 41.2911 164.116 41.2738 164.046 41.2387C163.977 41.2041 163.93 41.1297 163.909 41.0164L163.778 40.4013C163.603 40.5588 163.433 40.6989 163.268 40.8235C163.102 40.9476 162.928 41.0523 162.744 41.1375C162.561 41.2223 162.366 41.2868 162.159 41.3304C161.952 41.3737 161.722 41.3958 161.469 41.3958C161.211 41.3958 160.971 41.3594 160.746 41.2876C160.521 41.2154 160.326 41.1068 160.16 40.9623C159.995 40.8179 159.863 40.6353 159.765 40.4147C159.667 40.1933 159.618 39.9316 159.618 39.6301C159.618 39.3675 159.69 39.1149 159.834 38.8718C159.977 38.6292 160.21 38.4137 160.53 38.2252C160.851 38.0374 161.27 37.883 161.789 37.7628C162.308 37.6425 162.943 37.5819 163.693 37.5819V37.062C163.693 36.5438 163.583 36.1524 163.363 35.8872C163.142 35.6216 162.817 35.4888 162.385 35.4888C162.101 35.4888 161.862 35.5247 161.669 35.5965C161.474 35.6683 161.307 35.7497 161.165 35.8388C161.023 35.9283 160.9 36.0088 160.798 36.0806C160.696 36.1524 160.594 36.1887 160.494 36.1887C160.416 36.1887 160.347 36.1679 160.288 36.1268C160.23 36.0853 160.182 36.0338 160.147 35.9729L159.938 35.6C160.304 35.2466 160.699 34.9827 161.122 34.8084C161.545 34.6337 162.014 34.5467 162.529 34.5467C162.899 34.5467 163.228 34.6077 163.517 34.7297C163.804 34.8517 164.046 35.0221 164.243 35.2401C164.439 35.4586 164.587 35.722 164.687 36.0317C164.788 36.3414 164.838 36.6814 164.838 37.0521V41.2911Z" fill="#616160"/>
<path id="Fill-32" fill-rule="evenodd" clip-rule="evenodd" d="M170.398 35.757C170.346 35.853 170.265 35.9006 170.156 35.9006C170.091 35.9006 170.017 35.8768 169.934 35.8288C169.851 35.7808 169.749 35.7276 169.63 35.6683C169.509 35.6095 169.367 35.555 169.201 35.5048C169.036 35.4551 168.839 35.4296 168.612 35.4296C168.416 35.4296 168.24 35.4551 168.082 35.5048C167.925 35.555 167.792 35.6238 167.68 35.7111C167.569 35.7985 167.484 35.8997 167.425 36.0152C167.366 36.1307 167.337 36.2562 167.337 36.3916C167.337 36.5611 167.386 36.7034 167.484 36.8163C167.582 36.9301 167.712 37.0278 167.873 37.1109C168.034 37.1935 168.218 37.2666 168.423 37.3302C168.627 37.3933 168.838 37.4608 169.054 37.5326C169.27 37.6044 169.48 37.6844 169.685 37.7714C169.89 37.8588 170.073 37.9678 170.235 38.0988C170.396 38.2295 170.526 38.3899 170.624 38.5794C170.722 38.7693 170.771 38.9972 170.771 39.2628C170.771 39.5686 170.716 39.8511 170.607 40.1102C170.498 40.3697 170.337 40.5947 170.123 40.7841C169.91 40.974 169.648 41.1232 169.338 41.2322C169.029 41.3412 168.671 41.3957 168.266 41.3957C167.803 41.3957 167.385 41.3205 167.01 41.1704C166.635 41.0194 166.316 40.8265 166.054 40.5912L166.33 40.1461C166.364 40.0899 166.406 40.0462 166.454 40.0155C166.501 39.9848 166.565 39.9696 166.643 39.9696C166.722 39.9696 166.805 40.0003 166.892 40.0613C166.979 40.1223 167.085 40.1898 167.209 40.2642C167.334 40.3382 167.484 40.4056 167.661 40.4671C167.837 40.5276 168.058 40.5588 168.324 40.5588C168.551 40.5588 168.75 40.5289 168.92 40.4701C169.09 40.4113 169.232 40.3317 169.345 40.2313C169.458 40.131 169.542 40.0155 169.597 39.8844C169.651 39.7538 169.679 39.6141 169.679 39.4657C169.679 39.2827 169.629 39.1313 169.531 39.0111C169.434 38.8913 169.304 38.7888 169.142 38.7035C168.981 38.6188 168.796 38.5444 168.589 38.4816C168.382 38.4181 168.171 38.3519 167.955 38.2818C167.739 38.2122 167.527 38.1326 167.321 38.043C167.113 37.9539 166.929 37.8415 166.767 37.7061C166.606 37.5711 166.477 37.4046 166.378 37.206C166.28 37.0075 166.231 36.7666 166.231 36.4833C166.231 36.2302 166.283 35.9867 166.388 35.7535C166.493 35.5204 166.645 35.3154 166.846 35.1384C167.047 34.962 167.293 34.8214 167.585 34.7167C167.878 34.612 168.211 34.5597 168.586 34.5597C169.022 34.5597 169.414 34.6285 169.76 34.7656C170.107 34.9031 170.407 35.0917 170.66 35.3318L170.398 35.757Z" fill="#616160"/>
<path id="Fill-34" fill-rule="evenodd" clip-rule="evenodd" d="M177.757 35.4888C177.378 35.4888 177.045 35.5758 176.76 35.7501C176.474 35.9249 176.211 36.1714 175.971 36.4893V39.695C176.185 39.9831 176.419 40.1855 176.674 40.3036C176.93 40.4208 177.214 40.4801 177.528 40.4801C178.143 40.4801 178.616 40.2595 178.948 39.8196C179.279 39.3788 179.445 38.7507 179.445 37.9354C179.445 37.5032 179.406 37.133 179.331 36.8233C179.254 36.5136 179.144 36.2597 179 36.0611C178.856 35.8626 178.68 35.7177 178.47 35.626C178.261 35.5343 178.023 35.4888 177.757 35.4888ZM174.807 43.5352V34.6644H175.5C175.666 34.6644 175.771 34.7449 175.814 34.9062L175.912 35.6917C176.196 35.347 176.52 35.0697 176.884 34.8608C177.248 34.651 177.668 34.5468 178.143 34.5468C178.523 34.5468 178.867 34.6199 179.177 34.7656C179.486 34.9118 179.75 35.1277 179.968 35.4136C180.186 35.6991 180.354 36.0538 180.472 36.4764C180.59 36.8998 180.649 37.386 180.649 37.9354C180.649 38.4237 180.583 38.8783 180.452 39.2992C180.322 39.7201 180.134 40.0843 179.89 40.3918C179.646 40.6989 179.346 40.9407 178.991 41.1181C178.635 41.2946 178.235 41.3828 177.79 41.3828C177.38 41.3828 177.03 41.3153 176.74 41.1799C176.45 41.045 176.194 40.8525 175.971 40.6042V43.5352H174.807Z" fill="#616160"/>
<path id="Fill-36" fill-rule="evenodd" clip-rule="evenodd" d="M184.678 35.4165C184.116 35.4165 183.673 35.5791 183.35 35.904C183.028 36.2288 182.827 36.6791 182.749 37.2549H186.353C186.353 36.9845 186.316 36.7371 186.242 36.5122C186.168 36.2881 186.059 36.0935 185.915 35.93C185.77 35.7669 185.595 35.6401 185.388 35.551C185.181 35.4615 184.944 35.4165 184.678 35.4165ZM184.652 34.5601C185.049 34.5601 185.415 34.6262 185.751 34.759C186.087 34.8923 186.377 35.0839 186.621 35.3352C186.865 35.5856 187.056 35.8949 187.193 36.2639C187.331 36.6324 187.399 37.052 187.399 37.523C187.399 37.706 187.38 37.8284 187.341 37.8894C187.301 37.9504 187.227 37.9811 187.118 37.9811H182.709C182.718 38.3994 182.775 38.7636 182.879 39.0733C182.984 39.383 183.128 39.6417 183.311 39.8484C183.494 40.0561 183.712 40.2105 183.965 40.313C184.219 40.4155 184.502 40.467 184.815 40.467C185.108 40.467 185.36 40.4332 185.571 40.3653C185.783 40.2979 185.965 40.2248 186.117 40.1465C186.27 40.0677 186.398 39.9946 186.5 39.9272C186.602 39.8593 186.691 39.8255 186.765 39.8255C186.861 39.8255 186.935 39.8627 186.988 39.9367L187.315 40.3623C187.171 40.5366 186.998 40.6885 186.798 40.8165C186.598 40.9454 186.382 41.0509 186.153 41.134C185.924 41.217 185.688 41.2793 185.444 41.3204C185.2 41.3619 184.958 41.3827 184.718 41.3827C184.26 41.3827 183.838 41.3048 183.452 41.1504C183.066 40.9956 182.732 40.7689 182.451 40.47C182.17 40.1711 181.95 39.8017 181.793 39.3614C181.637 38.921 181.558 38.415 181.558 37.8436C181.558 37.3812 181.629 36.9495 181.77 36.5481C181.912 36.1471 182.116 35.7993 182.382 35.5048C182.648 35.2102 182.973 34.9792 183.357 34.8118C183.741 34.6435 184.172 34.5601 184.652 34.5601Z" fill="#616160"/>
<path id="Fill-38" fill-rule="evenodd" clip-rule="evenodd" d="M188.884 41.2911V34.6644H189.552C189.678 34.6644 189.765 34.6882 189.813 34.7366C189.861 34.7842 189.894 34.8668 189.911 34.9849L189.99 36.0187C190.217 35.5563 190.497 35.1951 190.83 34.936C191.164 34.6765 191.556 34.5468 192.005 34.5468C192.188 34.5468 192.354 34.5675 192.502 34.609C192.65 34.6501 192.787 34.7081 192.914 34.7821L192.763 35.6524C192.733 35.7614 192.665 35.8159 192.561 35.8159C192.5 35.8159 192.406 35.7951 192.279 35.7536C192.153 35.7125 191.976 35.6917 191.749 35.6917C191.344 35.6917 191.005 35.8089 190.732 36.0447C190.46 36.28 190.232 36.6226 190.049 37.0716V41.2911H188.884Z" fill="#616160"/>
<path id="Fill-40" fill-rule="evenodd" clip-rule="evenodd" d="M197.951 35.757C197.899 35.853 197.818 35.9006 197.709 35.9006C197.643 35.9006 197.569 35.8768 197.487 35.8288C197.403 35.7808 197.302 35.7276 197.182 35.6683C197.062 35.6095 196.919 35.555 196.754 35.5048C196.588 35.4551 196.392 35.4296 196.165 35.4296C195.969 35.4296 195.793 35.4551 195.635 35.5048C195.478 35.555 195.344 35.6238 195.233 35.7111C195.122 35.7985 195.037 35.8997 194.978 36.0152C194.919 36.1307 194.889 36.2562 194.889 36.3916C194.889 36.5611 194.939 36.7034 195.037 36.8163C195.135 36.9301 195.264 37.0278 195.426 37.1109C195.587 37.1935 195.77 37.2666 195.975 37.3302C196.18 37.3933 196.391 37.4608 196.607 37.5326C196.823 37.6044 197.033 37.6844 197.238 37.7714C197.443 37.8588 197.626 37.9678 197.787 38.0988C197.949 38.2295 198.079 38.3899 198.176 38.5794C198.275 38.7693 198.324 38.9972 198.324 39.2628C198.324 39.5686 198.269 39.8511 198.16 40.1102C198.051 40.3697 197.89 40.5947 197.676 40.7841C197.463 40.974 197.201 41.1232 196.891 41.2322C196.581 41.3412 196.224 41.3957 195.818 41.3957C195.356 41.3957 194.937 41.3205 194.562 41.1704C194.187 41.0194 193.869 40.8265 193.607 40.5912L193.882 40.1461C193.917 40.0899 193.958 40.0462 194.007 40.0155C194.054 39.9848 194.118 39.9696 194.196 39.9696C194.275 39.9696 194.357 40.0003 194.445 40.0613C194.532 40.1223 194.638 40.1898 194.762 40.2642C194.886 40.3382 195.037 40.4056 195.213 40.4671C195.39 40.5276 195.611 40.5588 195.877 40.5588C196.104 40.5588 196.302 40.5289 196.472 40.4701C196.643 40.4113 196.784 40.3317 196.898 40.2313C197.011 40.131 197.095 40.0155 197.149 39.8844C197.204 39.7538 197.232 39.6141 197.232 39.4657C197.232 39.2827 197.182 39.1313 197.084 39.0111C196.986 38.8913 196.857 38.7888 196.695 38.7035C196.534 38.6188 196.349 38.5444 196.142 38.4816C195.935 38.4181 195.724 38.3519 195.508 38.2818C195.292 38.2122 195.08 38.1326 194.873 38.043C194.666 37.9539 194.481 37.8415 194.32 37.7061C194.159 37.5711 194.029 37.4046 193.931 37.206C193.833 37.0075 193.784 36.7666 193.784 36.4833C193.784 36.2302 193.836 35.9867 193.941 35.7535C194.046 35.5204 194.198 35.3154 194.399 35.1384C194.6 34.962 194.846 34.8214 195.138 34.7167C195.43 34.612 195.764 34.5597 196.139 34.5597C196.575 34.5597 196.966 34.6285 197.313 34.7656C197.66 34.9031 197.96 35.0917 198.213 35.3318L197.951 35.757Z" fill="#616160"/>
<path id="Fill-42" fill-rule="evenodd" clip-rule="evenodd" d="M202.517 40.4732C203.171 40.4732 203.66 40.2539 203.982 39.8158C204.305 39.3776 204.466 38.766 204.466 37.9809C204.466 37.1915 204.305 36.5768 203.982 36.1365C203.66 35.6957 203.171 35.4755 202.517 35.4755C202.185 35.4755 201.897 35.5322 201.653 35.6455C201.409 35.7593 201.205 35.9224 201.042 36.1365C200.878 36.3502 200.756 36.6127 200.675 36.9246C200.595 37.2364 200.555 37.5885 200.555 37.9809C200.555 38.3736 200.595 38.7244 200.675 39.0341C200.756 39.3438 200.878 39.6042 201.042 39.8158C201.205 40.0277 201.409 40.1899 201.653 40.3032C201.897 40.4166 202.185 40.4732 202.517 40.4732ZM202.517 34.5598C203.001 34.5598 203.438 34.6407 203.828 34.802C204.219 34.9634 204.55 35.1922 204.823 35.4889C205.095 35.7852 205.305 36.1438 205.451 36.5647C205.597 36.9856 205.67 37.4553 205.67 37.9744C205.67 38.4978 205.597 38.9684 205.451 39.3871C205.305 39.8062 205.095 40.1635 204.823 40.4603C204.55 40.7566 204.219 40.9849 203.828 41.1441C203.438 41.3029 203.001 41.3829 202.517 41.3829C202.033 41.3829 201.595 41.3029 201.205 41.1441C200.815 40.9849 200.483 40.7566 200.208 40.4603C199.933 40.1635 199.721 39.8062 199.573 39.3871C199.425 38.9684 199.351 38.4978 199.351 37.9744C199.351 37.4553 199.425 36.9856 199.573 36.5647C199.721 36.1438 199.933 35.7852 200.208 35.4889C200.483 35.1922 200.815 34.9634 201.205 34.802C201.595 34.6407 202.033 34.5598 202.517 34.5598Z" fill="#616160"/>
<path id="Fill-44" fill-rule="evenodd" clip-rule="evenodd" d="M207.109 41.2911V34.6644H207.803C207.968 34.6644 208.073 34.7448 208.117 34.9062L208.208 35.6259C208.496 35.3076 208.817 35.0502 209.173 34.8538C209.529 34.6579 209.94 34.5597 210.406 34.5597C210.768 34.5597 211.088 34.6198 211.365 34.7396C211.642 34.8599 211.873 35.0294 212.058 35.2496C212.243 35.4702 212.384 35.7349 212.48 36.0446C212.576 36.3544 212.624 36.6969 212.624 37.0715V41.2911H211.459V37.0715C211.459 36.5702 211.345 36.1813 211.116 35.9041C210.887 35.6268 210.537 35.4888 210.066 35.4888C209.722 35.4888 209.4 35.5714 209.101 35.7371C208.802 35.9032 208.526 36.1273 208.274 36.411V41.2911H207.109Z" fill="#616160"/>
<path id="Fill-46" fill-rule="evenodd" clip-rule="evenodd" d="M216.228 40.5779C216.433 40.5779 216.621 40.5572 216.791 40.5157C216.961 40.4746 217.121 40.4153 217.272 40.3392C217.422 40.2626 217.566 40.1705 217.703 40.0615C217.841 39.9525 217.975 39.8279 218.106 39.6882V38.3209C217.57 38.3209 217.114 38.3551 216.739 38.4234C216.363 38.4913 216.058 38.58 215.823 38.6899C215.587 38.7993 215.416 38.9286 215.309 39.0779C215.202 39.2271 215.149 39.3936 215.149 39.5775C215.149 39.7535 215.177 39.9045 215.234 40.0316C215.291 40.1588 215.367 40.2631 215.463 40.3444C215.559 40.4253 215.673 40.485 215.804 40.5222C215.934 40.5594 216.076 40.5779 216.228 40.5779ZM219.251 41.2908H218.734C218.62 41.2908 218.529 41.2735 218.459 41.2385C218.389 41.2039 218.344 41.1295 218.322 41.0166L218.191 40.4015C218.017 40.5585 217.846 40.6986 217.68 40.8232C217.515 40.9473 217.34 41.0525 217.157 41.1372C216.975 41.222 216.779 41.2869 216.572 41.3302C216.365 41.3738 216.135 41.3959 215.881 41.3959C215.625 41.3959 215.384 41.3596 215.159 41.2878C214.934 41.2155 214.739 41.107 214.573 40.9625C214.408 40.818 214.275 40.6355 214.178 40.4144C214.079 40.193 214.031 39.9317 214.031 39.6302C214.031 39.3672 214.102 39.1146 214.246 38.872C214.39 38.6289 214.622 38.4135 214.943 38.2253C215.264 38.0371 215.683 37.8831 216.202 37.7625C216.722 37.6422 217.356 37.5817 218.106 37.5817V37.0617C218.106 36.544 217.996 36.1525 217.776 35.8869C217.555 35.6213 217.229 35.4885 216.797 35.4885C216.514 35.4885 216.275 35.5244 216.081 35.5962C215.887 35.6681 215.719 35.7494 215.577 35.8385C215.436 35.928 215.314 36.0089 215.211 36.0807C215.109 36.1525 215.007 36.1888 214.907 36.1888C214.829 36.1888 214.759 36.1681 214.701 36.1266C214.642 36.085 214.596 36.0336 214.56 35.973L214.351 35.5997C214.717 35.2467 215.112 34.9825 215.535 34.8081C215.958 34.6338 216.427 34.5469 216.941 34.5469C217.312 34.5469 217.642 34.6074 217.93 34.7294C218.217 34.8518 218.459 35.0218 218.655 35.2398C218.851 35.4583 219 35.7217 219.101 36.0314C219.2 36.3411 219.251 36.6811 219.251 37.0522V41.2908Z" fill="#616160"/>
<g id="Group-50">
<g id="Mask group_2">
<mask id="mask1_1065_133" style="mask-type:luminance" maskUnits="userSpaceOnUse" x="220" y="34" width="6" height="8">
<g id="Group_2">
<path id="Vector_2" d="M220.467 34.5597H225.183V41.3957H220.467V34.5597Z" fill="white"/>
</g>
</mask>
<g mask="url(#mask1_1065_133)">
<path id="Fill-48" fill-rule="evenodd" clip-rule="evenodd" d="M224.811 35.757C224.758 35.853 224.677 35.9006 224.568 35.9006C224.503 35.9006 224.429 35.8768 224.346 35.8288C224.263 35.7808 224.162 35.7276 224.042 35.6683C223.922 35.6095 223.779 35.555 223.613 35.5048C223.448 35.4551 223.252 35.4296 223.025 35.4296C222.829 35.4296 222.652 35.4551 222.495 35.5048C222.338 35.555 222.204 35.6238 222.093 35.7111C221.981 35.7985 221.896 35.8997 221.838 36.0152C221.778 36.1307 221.749 36.2562 221.749 36.3916C221.749 36.5611 221.798 36.7034 221.896 36.8163C221.994 36.9301 222.124 37.0278 222.285 37.1109C222.447 37.1935 222.63 37.2666 222.835 37.3302C223.04 37.3933 223.251 37.4608 223.467 37.5326C223.682 37.6044 223.893 37.6844 224.098 37.7714C224.302 37.8588 224.486 37.9678 224.647 38.0988C224.808 38.2295 224.938 38.3899 225.036 38.5794C225.135 38.7693 225.183 38.9972 225.183 39.2628C225.183 39.5686 225.129 39.8511 225.02 40.1102C224.911 40.3697 224.749 40.5947 224.536 40.7841C224.322 40.974 224.061 41.1232 223.751 41.2322C223.441 41.3412 223.084 41.3957 222.678 41.3957C222.216 41.3957 221.797 41.3205 221.422 41.1704C221.047 41.0194 220.729 40.8265 220.467 40.5912L220.742 40.1461C220.777 40.0899 220.818 40.0462 220.866 40.0155C220.914 39.9848 220.977 39.9696 221.056 39.9696C221.134 39.9696 221.217 40.0003 221.304 40.0613C221.392 40.1223 221.497 40.1898 221.621 40.2642C221.746 40.3382 221.896 40.4056 222.073 40.4671C222.249 40.5276 222.471 40.5588 222.737 40.5588C222.964 40.5588 223.162 40.5289 223.332 40.4701C223.503 40.4113 223.644 40.3317 223.757 40.2313C223.871 40.131 223.955 40.0155 224.009 39.8844C224.064 39.7538 224.091 39.6141 224.091 39.4657C224.091 39.2827 224.042 39.1313 223.944 39.0111C223.846 38.8913 223.716 38.7888 223.555 38.7035C223.394 38.6188 223.209 38.5444 223.002 38.4816C222.795 38.4181 222.583 38.3519 222.368 38.2818C222.152 38.2122 221.94 38.1326 221.733 38.043C221.525 37.9539 221.341 37.8415 221.18 37.7061C221.018 37.5711 220.889 37.4046 220.791 37.206C220.692 37.0075 220.643 36.7666 220.643 36.4833C220.643 36.2302 220.696 35.9867 220.8 35.7535C220.905 35.5204 221.058 35.3154 221.258 35.1384C221.459 34.962 221.705 34.8214 221.998 34.7167C222.29 34.612 222.623 34.5597 222.999 34.5597C223.435 34.5597 223.826 34.6285 224.173 34.7656C224.519 34.9031 224.82 35.0917 225.072 35.3318L224.811 35.757Z" fill="#616160"/>
</g>
</g>
</g>
<path id="Fill-51" fill-rule="evenodd" clip-rule="evenodd" d="M71.3067 20.1455C71.3067 19.2691 71.193 18.478 70.9659 17.7716C70.7388 17.0657 70.4122 16.467 69.9862 15.9757C69.5597 15.4851 69.0385 15.108 68.4221 14.8437C67.8048 14.5802 67.1028 14.4483 66.3155 14.4483H63.5649V25.8543H66.3155C67.1028 25.8543 67.8048 25.7228 68.4221 25.4589C69.0385 25.1955 69.5597 24.8179 69.9862 24.3269C70.4122 23.8356 70.7388 23.2369 70.9659 22.5314C71.193 21.8251 71.3067 21.03 71.3067 20.1455ZM75.5185 20.1455C75.5185 21.4275 75.2975 22.6101 74.8554 23.6937C74.4129 24.7772 73.79 25.7146 72.9868 26.5057C72.1831 27.2968 71.2155 27.9141 70.0835 28.3557C68.9515 28.7987 67.6954 29.0197 66.3155 29.0197H59.4258V11.2833H66.3155C67.6954 11.2833 68.9515 11.5065 70.0835 11.9529C71.2155 12.3993 72.1831 13.0161 72.9868 13.8029C73.79 14.5902 74.4129 15.5254 74.8554 16.6089C75.2975 17.6925 75.5185 18.8716 75.5185 20.1455Z" fill="#616160"/>
<path id="Fill-53" fill-rule="evenodd" clip-rule="evenodd" d="M83.8451 22.2389H88.6901L87.0589 17.3818C86.9534 17.0738 86.8292 16.7104 86.6874 16.2926C86.5455 15.8743 86.4053 15.4219 86.2673 14.9348C86.1376 15.4305 86.0035 15.8886 85.8655 16.3108C85.7275 16.7329 85.5977 17.098 85.4762 17.4064L83.8451 22.2389ZM95.2389 29.0196H92.0497C91.6924 29.0196 91.3983 28.9361 91.1673 28.77C90.9359 28.6039 90.7754 28.3906 90.6863 28.1307L89.6395 25.0388H82.8956L81.8484 28.1307C81.7675 28.3578 81.6092 28.5628 81.3739 28.7458C81.1386 28.9283 80.8505 29.0196 80.5096 29.0196H77.2958L84.1612 11.2832H88.3734L95.2389 29.0196Z" fill="#616160"/>
<path id="Fill-55" fill-rule="evenodd" clip-rule="evenodd" d="M109.579 11.2832V14.5455H104.588V29.0196H100.473V14.5455H95.4825V11.2832H109.579Z" fill="#616160"/>
<path id="Fill-57" fill-rule="evenodd" clip-rule="evenodd" d="M116.42 22.2389H121.265L119.634 17.3818C119.529 17.0738 119.405 16.7104 119.263 16.2926C119.12 15.8743 118.981 15.4219 118.843 14.9348C118.713 15.4305 118.579 15.8886 118.441 16.3108C118.303 16.7329 118.174 17.098 118.052 17.4064L116.42 22.2389ZM127.815 29.0196H124.625C124.268 29.0196 123.974 28.9361 123.743 28.77C123.511 28.6039 123.351 28.3906 123.262 28.1307L122.215 25.0388H115.471L114.424 28.1307C114.342 28.3578 114.185 28.5628 113.949 28.7458C113.713 28.9283 113.426 29.0196 113.085 29.0196H109.871L116.737 11.2832H120.949L127.815 29.0196Z" fill="#616160"/>
<path id="Fill-59" fill-rule="evenodd" clip-rule="evenodd" d="M143.687 24.4304C143.785 24.4304 143.881 24.4486 143.979 24.485C144.076 24.5217 144.17 24.5844 144.259 24.6735L145.89 26.3899C145.176 27.3234 144.281 28.0271 143.206 28.5021C142.13 28.977 140.858 29.2145 139.389 29.2145C138.042 29.2145 136.835 28.9848 135.768 28.5267C134.701 28.0682 133.796 27.435 133.053 26.6274C132.311 25.8202 131.741 24.8626 131.344 23.7548C130.946 22.647 130.747 21.4441 130.747 20.1456C130.747 18.8224 130.974 17.6074 131.428 16.4996C131.883 15.3918 132.518 14.4363 133.333 13.6327C134.149 12.8294 135.125 12.2044 136.261 11.758C137.397 11.312 138.651 11.0884 140.023 11.0884C140.688 11.0884 141.315 11.1476 141.903 11.2649C142.492 11.3829 143.042 11.5452 143.553 11.7519C144.064 11.9587 144.535 12.2065 144.965 12.4942C145.395 12.7827 145.776 13.1015 146.11 13.4501L144.722 15.3127C144.632 15.4264 144.527 15.5298 144.405 15.6233C144.283 15.7163 144.113 15.763 143.894 15.763C143.748 15.763 143.609 15.731 143.48 15.6656C143.35 15.6008 143.212 15.5216 143.066 15.4282C142.92 15.3352 142.759 15.2331 142.585 15.1237C142.411 15.0142 142.204 14.913 141.964 14.8196C141.725 14.7261 141.445 14.6474 141.124 14.5821C140.804 14.5172 140.428 14.4848 139.998 14.4848C139.251 14.4848 138.57 14.6171 137.953 14.8806C137.337 15.144 136.807 15.5216 136.365 16.0126C135.923 16.5035 135.577 17.0983 135.33 17.796C135.082 18.4937 134.959 19.277 134.959 20.1456C134.959 21.0544 135.082 21.862 135.33 22.5674C135.577 23.2738 135.914 23.8681 136.34 24.3509C136.766 24.8345 137.263 25.2013 137.832 25.4526C138.399 25.7043 139.008 25.8302 139.658 25.8302C140.031 25.8302 140.372 25.8116 140.68 25.7753C140.989 25.7389 141.274 25.6762 141.538 25.5867C141.802 25.4976 142.054 25.3816 142.293 25.2398C142.532 25.0979 142.774 24.9214 143.017 24.7099C143.115 24.6294 143.22 24.5624 143.334 24.5096C143.447 24.4568 143.565 24.4304 143.687 24.4304Z" fill="#9C4290"/>
<g id="Mask group_3">
<mask id="mask2_1065_133" style="mask-type:luminance" maskUnits="userSpaceOnUse" x="0" y="0" width="226" height="50">
<g id="Group_3">
<path id="Vector_3" d="M0.945648 50H225.183V0H0.945648V50Z" fill="white"/>
</g>
</mask>
<g mask="url(#mask2_1065_133)">
<path id="Fill-61" fill-rule="evenodd" clip-rule="evenodd" d="M150.078 29.0194H154.217V11.2831H150.078V29.0194Z" fill="#9C4290"/>
</g>
</g>
<g id="Mask group_4">
<mask id="mask3_1065_133" style="mask-type:luminance" maskUnits="userSpaceOnUse" x="0" y="0" width="226" height="50">
<g id="Group_4">
<path id="Vector_4" d="M0.945648 50H225.183V0H0.945648V50Z" fill="white"/>
</g>
</mask>
<g mask="url(#mask3_1065_133)">
<path id="Fill-63" fill-rule="evenodd" clip-rule="evenodd" d="M157.99 11.2832H161.301C161.658 11.2832 161.95 11.3641 162.178 11.5263C162.405 11.6889 162.567 11.9043 162.665 12.1721L166.097 21.6671C166.252 22.081 166.408 22.5313 166.566 23.0183C166.724 23.505 166.872 24.0162 167.011 24.5522C167.124 24.0162 167.256 23.505 167.406 23.0183C167.556 22.5313 167.704 22.081 167.851 21.6671L171.259 12.1721C171.34 11.9446 171.498 11.74 171.734 11.557C171.969 11.3745 172.257 11.2832 172.598 11.2832H175.933L168.824 29.0196H165.1L157.99 11.2832Z" fill="#9C4290"/>
</g>
</g>
<g id="Mask group_5">
<mask id="mask4_1065_133" style="mask-type:luminance" maskUnits="userSpaceOnUse" x="0" y="0" width="226" height="50">
<g id="Group_5">
<path id="Vector_5" d="M0.945648 50H225.183V0H0.945648V50Z" fill="white"/>
</g>
</mask>
<g mask="url(#mask4_1065_133)">
<path id="Fill-64" fill-rule="evenodd" clip-rule="evenodd" d="M179.707 29.0194H183.846V11.2831H179.707V29.0194Z" fill="#9C4290"/>
</g>
</g>
<g id="Mask group_6">
<mask id="mask5_1065_133" style="mask-type:luminance" maskUnits="userSpaceOnUse" x="0" y="0" width="226" height="50">
<g id="Group_6">
<path id="Vector_6" d="M0.945648 50H225.183V0H0.945648V50Z" fill="white"/>
</g>
</mask>
<g mask="url(#mask5_1065_133)">
<path id="Fill-65" fill-rule="evenodd" clip-rule="evenodd" d="M200.998 24.4304C201.096 24.4304 201.192 24.4486 201.29 24.485C201.387 24.5217 201.481 24.5844 201.57 24.6735L203.201 26.3899C202.487 27.3234 201.592 28.0271 200.517 28.5021C199.442 28.977 198.169 29.2145 196.7 29.2145C195.353 29.2145 194.146 28.9848 193.079 28.5267C192.012 28.0682 191.107 27.435 190.364 26.6274C189.622 25.8202 189.052 24.8626 188.655 23.7548C188.257 22.647 188.058 21.4441 188.058 20.1456C188.058 18.8224 188.285 17.6074 188.739 16.4996C189.194 15.3918 189.829 14.4363 190.644 13.6327C191.46 12.8294 192.436 12.2044 193.572 11.758C194.709 11.312 195.962 11.0884 197.334 11.0884C197.999 11.0884 198.626 11.1476 199.214 11.2649C199.803 11.3829 200.353 11.5452 200.864 11.7519C201.375 11.9587 201.846 12.2065 202.276 12.4942C202.706 12.7827 203.087 13.1015 203.421 13.4501L202.033 15.3127C201.943 15.4264 201.838 15.5298 201.716 15.6233C201.594 15.7163 201.424 15.763 201.205 15.763C201.059 15.763 200.92 15.731 200.791 15.6656C200.661 15.6008 200.523 15.5216 200.377 15.4282C200.231 15.3352 200.07 15.2331 199.896 15.1237C199.722 15.0142 199.515 14.913 199.275 14.8196C199.036 14.7261 198.756 14.6474 198.435 14.5821C198.115 14.5172 197.739 14.4848 197.309 14.4848C196.562 14.4848 195.881 14.6171 195.264 14.8806C194.648 15.144 194.118 15.5216 193.676 16.0126C193.234 16.5035 192.888 17.0983 192.641 17.796C192.393 18.4937 192.27 19.277 192.27 20.1456C192.27 21.0544 192.393 21.862 192.641 22.5674C192.888 23.2738 193.225 23.8681 193.651 24.3509C194.077 24.8345 194.574 25.2013 195.143 25.4526C195.71 25.7043 196.319 25.8302 196.969 25.8302C197.342 25.8302 197.683 25.8116 197.991 25.7753C198.3 25.7389 198.585 25.6762 198.849 25.5867C199.113 25.4976 199.365 25.3816 199.604 25.2398C199.843 25.0979 200.085 24.9214 200.328 24.7099C200.426 24.6294 200.531 24.5624 200.645 24.5096C200.758 24.4568 200.876 24.4304 200.998 24.4304Z" fill="#9C4290"/>
</g>
</g>
<g id="Mask group_7">
<mask id="mask6_1065_133" style="mask-type:luminance" maskUnits="userSpaceOnUse" x="0" y="0" width="226" height="50">
<g id="Group_7">
<path id="Vector_7" d="M0.945648 50H225.183V0H0.945648V50Z" fill="white"/>
</g>
</mask>
<g mask="url(#mask6_1065_133)">
<path id="Fill-66" fill-rule="evenodd" clip-rule="evenodd" d="M212.136 22.2389H216.981L215.35 17.3818C215.244 17.0738 215.12 16.7104 214.978 16.2926C214.836 15.8743 214.696 15.4219 214.559 14.9348C214.429 15.4305 214.294 15.8886 214.157 16.3108C214.019 16.7329 213.889 17.098 213.767 17.4064L212.136 22.2389ZM223.53 29.0196H220.341C219.984 29.0196 219.689 28.9361 219.458 28.77C219.227 28.6039 219.066 28.3906 218.977 28.1307L217.931 25.0388H211.187L210.14 28.1307C210.058 28.3578 209.9 28.5628 209.665 28.7458C209.429 28.9283 209.141 29.0196 208.801 29.0196H205.587L212.452 11.2832H216.664L223.53 29.0196Z" fill="#9C4290"/>
</g>
</g>
<g id="Mask group_8">
<mask id="mask7_1065_133" style="mask-type:luminance" maskUnits="userSpaceOnUse" x="0" y="0" width="226" height="50">
<g id="Group_8">
<path id="Vector_8" d="M0.945648 50H225.183V0H0.945648V50Z" fill="white"/>
</g>
</mask>
<g mask="url(#mask7_1065_133)">
<path id="Fill-67" fill-rule="evenodd" clip-rule="evenodd" d="M25.1143 37.8462C25.4153 38.0201 25.6783 37.9206 25.8081 37.8458C25.9374 37.771 26.1546 37.5936 26.1546 37.245V19.9217C26.1546 19.5731 25.9374 19.3957 25.8081 19.3209C25.6779 19.2465 25.4158 19.1466 25.1143 19.3209L10.1112 27.9823C9.80972 28.1571 9.76474 28.4335 9.76474 28.5836C9.76474 28.7332 9.80972 29.0096 10.1112 29.1844L25.1143 37.8462ZM25.4608 41.4057C24.7475 41.4057 24.0342 41.2184 23.3841 40.843L8.381 32.1807C7.08075 31.4298 6.30432 30.0854 6.30432 28.5836C6.30432 27.0818 7.08075 25.7369 8.381 24.986L23.3841 16.3242C24.6843 15.5737 26.2372 15.5733 27.5379 16.3238C28.8386 17.0747 29.615 18.4199 29.615 19.9217V37.245C29.615 38.7468 28.8386 40.0916 27.5383 40.843C26.8882 41.2184 26.1745 41.4057 25.4608 41.4057Z" fill="#44AB34"/>
</g>
</g>
<g id="Mask group_9">
<mask id="mask8_1065_133" style="mask-type:luminance" maskUnits="userSpaceOnUse" x="0" y="0" width="226" height="50">
<g id="Group_9">
<path id="Vector_9" d="M0.945648 50H225.183V0H0.945648V50Z" fill="white"/>
</g>
</mask>
<g mask="url(#mask8_1065_133)">
<path id="Fill-68" fill-rule="evenodd" clip-rule="evenodd" d="M22.3883 11.845C22.2386 11.845 22.1162 11.8978 22.0396 11.9419C21.9103 12.0163 21.6927 12.1941 21.6927 12.5423V29.866C21.6927 30.2146 21.9103 30.392 22.0396 30.4668C22.1694 30.5412 22.4315 30.6411 22.733 30.4668L37.7356 21.8049C38.0376 21.6306 38.0826 21.3538 38.0826 21.2041C38.0826 21.0545 38.0376 20.7776 37.7356 20.6033L22.733 11.9419C22.6093 11.8705 22.4925 11.845 22.3883 11.845ZM22.3865 34.0267C21.6728 34.0267 20.9595 33.839 20.3094 33.4635C19.0087 32.7126 18.2323 31.3678 18.2323 29.866V12.5423C18.2323 11.0409 19.0087 9.69563 20.3094 8.94472C21.6101 8.19468 23.163 8.19424 24.4632 8.94515L39.4659 17.6066C40.7665 18.3579 41.543 19.7023 41.543 21.2041C41.543 22.7055 40.7665 24.0507 39.4659 24.8017L24.4632 33.4635C23.8131 33.839 23.0998 34.0267 22.3865 34.0267Z" fill="#9C4290"/>
</g>
</g>
<g id="Mask group_10">
<mask id="mask9_1065_133" style="mask-type:luminance" maskUnits="userSpaceOnUse" x="0" y="0" width="226" height="50">
<g id="Group_10">
<path id="Vector_10" d="M0.945648 50H225.183V0H0.945648V50Z" fill="white"/>
</g>
</mask>
<g mask="url(#mask9_1065_133)">
<path id="Fill-69" fill-rule="evenodd" clip-rule="evenodd" d="M156.361 5.67285C153.747 5.67285 151.352 7.13488 150.158 9.45985L150.078 9.61556H152.383C153.582 9.61556 154.68 8.94468 155.228 7.87843L156.361 5.67285Z" fill="#9C4290"/>
</g>
</g>
</g>
</svg>
