<svg width="479" height="38" viewBox="0 0 479 38" fill="none" xmlns="http://www.w3.org/2000/svg">
<path opacity="0.7" d="M90.7247 37.0644C82.535 34.6625 9.77024 35.1398 1.0417 33.1074C-1.05961 32.3838 0.718417 27.1026 3.52017 21.6367C10.7131 7.56389 13.1108 7.64089 18.849 8.87264C22.6206 9.67328 57.1845 11.2592 98.8875 10.4585C99.8843 11.0898 102.848 8.99582 103.386 9.76567C105.865 12.4139 235.554 7.31755 238.248 7.24057C244.632 7.05581 239.676 8.36453 247.165 7.73326C263.113 6.40912 298.108 6.71706 310.15 5.33134C319.795 4.22276 321.869 4.19196 331.271 4.70006C340.862 5.22355 391.536 3.29895 397.139 1.68227C398.54 1.28195 399.618 1.37432 399.645 1.83623C400.211 1.85162 435.421 1.62067 435.583 1.91321C435.906 2.35973 436.983 2.55988 437.98 2.22115C439.812 1.71305 477.69 -0.735053 478.417 0.573688C480.518 4.29975 476.558 20.3588 472.517 24.3774C468.261 28.5961 443.153 24.439 423.379 27.349C316.454 29.7355 336.363 28.8425 310.716 31.3676C308.345 30.0588 299.886 33.5847 294.337 31.3214C292.047 30.3822 276.233 30.6285 272.785 31.6601C269.821 32.5378 188.786 32.1374 180.542 34.9705C167.207 33.1844 117.099 36.3254 90.7247 37.0491V37.0644Z" fill="#FEEF38"/>
</svg>
