<svg width="218" height="38" viewBox="0 0 218 38" fill="none" xmlns="http://www.w3.org/2000/svg">
<path opacity="0.7" d="M41.1092 37.0643C37.3934 34.6624 4.37827 35.1397 0.417923 33.1073C-0.535493 32.3836 0.271242 27.1025 1.54246 21.6366C4.80608 7.56377 5.89396 7.64076 8.49752 8.87252C10.2088 9.67316 25.8912 11.259 44.8129 10.4584C45.2652 11.0897 46.6097 8.9957 46.8542 9.76555C47.9787 12.4138 106.822 7.31743 108.044 7.24045C110.941 7.05568 108.692 8.36441 112.09 7.73314C119.326 6.409 135.204 6.71694 140.668 5.33122C145.044 4.22264 145.985 4.19184 150.251 4.69994C154.602 5.22343 177.594 3.29883 180.137 1.68215C180.773 1.28183 181.261 1.37419 181.274 1.8361C181.53 1.8515 197.506 1.62055 197.58 1.91309C197.726 2.3596 198.215 2.55976 198.667 2.22103C199.499 1.71293 216.685 -0.735175 217.015 0.573566C217.968 4.29963 216.171 20.3586 214.338 24.3772C212.406 28.596 201.014 24.4388 192.042 27.3489C143.528 29.7354 152.561 28.8424 140.925 31.3675C139.849 30.0587 136.011 33.5846 133.493 31.3213C132.454 30.3821 125.279 30.6284 123.714 31.66C122.37 32.5376 85.602 32.1373 81.8617 34.9703C75.8111 33.1843 53.0758 36.3253 41.1092 37.0489V37.0643Z" fill="#FEEF38"/>
</svg>
