<svg width="302" height="4937" viewBox="0 0 302 4937" fill="none" xmlns="http://www.w3.org/2000/svg">
<path d="M301 0.599989C281.099 42.2305 258.508 71.4465 202.312 68.1376C176.631 66.6255 192.92 42.6574 210.155 40.4298C271.202 32.5393 212.92 203.006 207.54 218.51C204.775 226.481 139.169 393.008 104.277 351.565C83.1275 326.443 120.616 273.568 155.582 281.429C176.456 286.122 180.166 304.113 184.012 320.393C200.902 391.895 193.267 473.385 184.666 544.941C172.629 645.076 147.339 741.222 109.833 836.161C81.9541 906.731 47.9914 974.345 29.7712 1047.72C1.67706 1160.86 -14.6009 1296.08 22.9088 1409.08C32.3914 1437.64 43.9931 1466.57 75.5206 1481.81C101.965 1494.59 136.994 1483.12 150.027 1459.87C154.605 1451.71 151.98 1440.36 138.916 1440.82C109.398 1441.87 87.9332 1471.81 76.8277 1491.62C46.9222 1544.97 40.7209 1608.74 42.5156 1667.39C43.6023 1702.9 47.5039 1738.4 49.3781 1773.89C51.961 1822.82 67.553 1894.11 32.3854 1937.25C9.645 1965.15 -7.44588 1925.99 18.007 1921.38C69.4019 1912.07 88.4665 1997.03 90.2258 2025C91.0817 2038.6 91.2148 2051.15 85.9776 2063.96C84.9021 2066.59 75.878 2070.55 78.7884 2069.44C87.7645 2066.05 93.9841 2088.52 94.8007 2092.24C110.929 2165.84 110.673 2239.62 112.774 2314.77C116.714 2455.73 101.567 2600.29 120.943 2740.49C125.144 2770.88 130.765 2802.08 144.471 2830.54C147.251 2836.31 151.281 2841.66 155.909 2846.41C157.496 2848.05 163.554 2847.39 162.444 2849.3C111.44 2937.35 133.309 3069.47 138.589 3162.74C147.175 3314.41 160.099 3465.83 166.366 3617.61C169.391 3690.89 177.897 3772.46 159.503 3845.34C151.413 3877.39 101.489 3989.67 42.1888 3939.72C12.4485 3914.66 33.7174 3861.94 77.1544 3885.45C131.099 3914.66 139.398 3989.17 144.145 4038.42C154.266 4143.46 147.114 4255.42 120.616 4358.22C95.2938 4456.46 62.1165 4550.27 52.9725 4651.46C51.0761 4672.44 37.8344 4906.28 118.329 4860.13C127.509 4854.87 140.841 4838.81 135.321 4827.23C123.816 4803.09 76.9927 4852.91 74.8669 4855.23C52.7246 4879.32 41.2823 4907.27 30.4246 4936.04" stroke="black" stroke-width="5" stroke-linecap="round"/>
</svg>
