<svg width="97" height="8" viewBox="0 0 97 8" fill="none" xmlns="http://www.w3.org/2000/svg">
<path id="Vector 2" d="M0.985657 3.5C0.709514 3.5 0.485657 3.72386 0.485657 4C0.485657 4.27614 0.709514 4.5 0.985657 4.5V3.5ZM96.574 4.35355C96.7692 4.15829 96.7692 3.84171 96.574 3.64645L93.392 0.464466C93.1967 0.269204 92.8801 0.269204 92.6849 0.464466C92.4896 0.659728 92.4896 0.976311 92.6849 1.17157L95.5133 4L92.6849 6.82843C92.4896 7.02369 92.4896 7.34027 92.6849 7.53553C92.8801 7.7308 93.1967 7.7308 93.392 7.53553L96.574 4.35355ZM0.985657 4.5H96.2204V3.5H0.985657V4.5Z" fill="#FF666E"/>
</svg>
